<?xml version="1.0" encoding="UTF-8" standalone="no"?>
<!DOCTYPE svg PUBLIC "-//W3C//DTD SVG 1.1//EN"
 "http://www.w3.org/Graphics/SVG/1.1/DTD/svg11.dtd">
<!-- Generated by graphviz version 14.0.2 (20251019.1705)
 -->
<!-- Title: QC_Results_ERD Pages: 1 -->
<svg width="1055pt" height="480pt"
 viewBox="0.00 0.00 1055.00 480.00" xmlns="http://www.w3.org/2000/svg" xmlns:xlink="http://www.w3.org/1999/xlink">
<g id="graph0" class="graph" transform="scale(1 1) rotate(0) translate(4 475.5)">
<title>QC_Results_ERD</title>
<polygon fill="white" stroke="none" points="-4,4 -4,-475.5 1051,-475.5 1051,4 -4,4"/>
<!-- categories -->
<g id="node1" class="node">
<title>categories</title>
<path fill="#e3f2fd" stroke="black" d="M84.62,-367.88C84.62,-367.88 18.38,-367.88 18.38,-367.88 12.38,-367.88 6.38,-361.88 6.38,-355.88 6.38,-355.88 6.38,-292.88 6.38,-292.88 6.38,-286.88 12.38,-280.88 18.38,-280.88 18.38,-280.88 84.62,-280.88 84.62,-280.88 90.62,-280.88 96.62,-286.88 96.62,-292.88 96.62,-292.88 96.62,-355.88 96.62,-355.88 96.62,-361.88 90.62,-367.88 84.62,-367.88"/>
<text xml:space="preserve" text-anchor="middle" x="51.5" y="-350.57" font-family="Arial" font-size="14.00">categories</text>
<text xml:space="preserve" text-anchor="middle" x="51.5" y="-318.82" font-family="Arial" font-size="14.00">• id (PK)</text>
<text xml:space="preserve" text-anchor="middle" x="51.5" y="-303.07" font-family="Arial" font-size="14.00">• name</text>
<text xml:space="preserve" text-anchor="middle" x="51.5" y="-287.32" font-family="Arial" font-size="14.00">• description</text>
</g>
<!-- pathogens -->
<g id="node2" class="node">
<title>pathogens</title>
<path fill="#e1f5fe" stroke="black" d="M305,-427.75C305,-427.75 204.25,-427.75 204.25,-427.75 198.25,-427.75 192.25,-421.75 192.25,-415.75 192.25,-415.75 192.25,-337 192.25,-337 192.25,-331 198.25,-325 204.25,-325 204.25,-325 305,-325 305,-325 311,-325 317,-331 317,-337 317,-337 317,-415.75 317,-415.75 317,-421.75 311,-427.75 305,-427.75"/>
<text xml:space="preserve" text-anchor="middle" x="254.62" y="-410.45" font-family="Arial" font-size="14.00">pathogens</text>
<text xml:space="preserve" text-anchor="middle" x="254.62" y="-378.7" font-family="Arial" font-size="14.00">• id (PK)</text>
<text xml:space="preserve" text-anchor="middle" x="254.62" y="-362.95" font-family="Arial" font-size="14.00">• name</text>
<text xml:space="preserve" text-anchor="middle" x="254.62" y="-347.2" font-family="Arial" font-size="14.00">• abbreviation</text>
<text xml:space="preserve" text-anchor="middle" x="254.62" y="-331.45" font-family="Arial" font-size="14.00">• category_id (FK)</text>
</g>
<!-- categories&#45;&gt;pathogens -->
<g id="edge1" class="edge">
<title>categories&#45;&gt;pathogens</title>
<path fill="none" stroke="#1976d2" stroke-width="2" d="M96.64,-335.79C120.9,-342.06 151.65,-350.01 179.49,-357.21"/>
<polygon fill="#1976d2" stroke="#1976d2" stroke-width="2" points="178.56,-360.58 189.11,-359.7 180.31,-353.8 178.56,-360.58"/>
<text xml:space="preserve" text-anchor="middle" x="140.5" y="-353.88" font-family="Arial" font-size="9.00"> &#160;1:many &#160;</text>
</g>
<!-- markers -->
<g id="node3" class="node">
<title>markers</title>
<path fill="#e0f7fa" stroke="black" d="M523.5,-406.62C523.5,-406.62 418.25,-406.62 418.25,-406.62 412.25,-406.62 406.25,-400.62 406.25,-394.62 406.25,-394.62 406.25,-300.12 406.25,-300.12 406.25,-294.12 412.25,-288.12 418.25,-288.12 418.25,-288.12 523.5,-288.12 523.5,-288.12 529.5,-288.12 535.5,-294.12 535.5,-300.12 535.5,-300.12 535.5,-394.62 535.5,-394.62 535.5,-400.62 529.5,-406.62 523.5,-406.62"/>
<text xml:space="preserve" text-anchor="middle" x="470.88" y="-389.32" font-family="Arial" font-size="14.00">markers</text>
<text xml:space="preserve" text-anchor="middle" x="470.88" y="-357.57" font-family="Arial" font-size="14.00">• id (PK)</text>
<text xml:space="preserve" text-anchor="middle" x="470.88" y="-341.82" font-family="Arial" font-size="14.00">• name</text>
<text xml:space="preserve" text-anchor="middle" x="470.88" y="-326.07" font-family="Arial" font-size="14.00">• pathogen_id (FK)</text>
<text xml:space="preserve" text-anchor="middle" x="470.88" y="-310.32" font-family="Arial" font-size="14.00">• antibody_type</text>
<text xml:space="preserve" text-anchor="middle" x="470.88" y="-294.57" font-family="Arial" font-size="14.00">• marker_type</text>
</g>
<!-- categories&#45;&gt;markers -->
<g id="edge3" class="edge">
<title>categories&#45;&gt;markers</title>
<path fill="none" stroke="#1976d2" stroke-dasharray="5,2" d="M96.66,-315.72C151.82,-306.22 248.95,-293.82 331.25,-305.88 352.32,-308.96 374.64,-314.55 395.06,-320.65"/>
<polygon fill="#1976d2" stroke="#1976d2" points="393.84,-323.94 404.43,-323.54 395.9,-317.25 393.84,-323.94"/>
<text xml:space="preserve" text-anchor="middle" x="254.62" y="-307.82" font-family="Arial" font-size="9.00"> &#160;1:many &#160;</text>
</g>
<!-- pathogens&#45;&gt;markers -->
<g id="edge2" class="edge">
<title>pathogens&#45;&gt;markers</title>
<path fill="none" stroke="#0288d1" stroke-width="2" d="M317.31,-368.03C340.99,-364.82 368.32,-361.12 393.24,-357.75"/>
<polygon fill="#0288d1" stroke="#0288d1" stroke-width="2" points="393.58,-361.23 403.02,-356.42 392.64,-354.3 393.58,-361.23"/>
<text xml:space="preserve" text-anchor="middle" x="368.75" y="-365.56" font-family="Arial" font-size="9.00"> &#160;1:many &#160;</text>
</g>
<!-- test_configurations -->
<g id="node8" class="node">
<title>test_configurations</title>
<path fill="#ffe0b2" stroke="black" d="M782.25,-221.5C782.25,-221.5 667.25,-221.5 667.25,-221.5 661.25,-221.5 655.25,-215.5 655.25,-209.5 655.25,-209.5 655.25,-99.25 655.25,-99.25 655.25,-93.25 661.25,-87.25 667.25,-87.25 667.25,-87.25 782.25,-87.25 782.25,-87.25 788.25,-87.25 794.25,-93.25 794.25,-99.25 794.25,-99.25 794.25,-209.5 794.25,-209.5 794.25,-215.5 788.25,-221.5 782.25,-221.5"/>
<text xml:space="preserve" text-anchor="middle" x="724.75" y="-204.2" font-family="Arial" font-size="14.00">test_configurations</text>
<text xml:space="preserve" text-anchor="middle" x="724.75" y="-172.45" font-family="Arial" font-size="14.00">• id (PK)</text>
<text xml:space="preserve" text-anchor="middle" x="724.75" y="-156.7" font-family="Arial" font-size="14.00">• marker_id (FK)</text>
<text xml:space="preserve" text-anchor="middle" x="724.75" y="-140.95" font-family="Arial" font-size="14.00">• assay_id (FK)</text>
<text xml:space="preserve" text-anchor="middle" x="724.75" y="-125.2" font-family="Arial" font-size="14.00">• qc_sample_id (FK)</text>
<text xml:space="preserve" text-anchor="middle" x="724.75" y="-109.45" font-family="Arial" font-size="14.00">• test_type</text>
<text xml:space="preserve" text-anchor="middle" x="724.75" y="-93.7" font-family="Arial" font-size="14.00">• quality_rating</text>
</g>
<!-- markers&#45;&gt;test_configurations -->
<g id="edge6" class="edge">
<title>markers&#45;&gt;test_configurations</title>
<path fill="none" stroke="#388e3c" stroke-width="2" d="M535.9,-290.81C558.97,-271.11 585.48,-249.24 610.5,-230.38 621.28,-222.24 632.88,-213.96 644.4,-206"/>
<polygon fill="#388e3c" stroke="#388e3c" stroke-width="2" points="646.16,-209.04 652.43,-200.51 642.2,-203.27 646.16,-209.04"/>
<text xml:space="preserve" text-anchor="middle" x="573" y="-275.84" font-family="Arial" font-size="9.00"> &#160;1:many &#160;</text>
</g>
<!-- manufacturers -->
<g id="node4" class="node">
<title>manufacturers</title>
<path fill="#fff9c4" stroke="black" d="M91,-227.88C91,-227.88 12,-227.88 12,-227.88 6,-227.88 0,-221.88 0,-215.88 0,-215.88 0,-152.88 0,-152.88 0,-146.88 6,-140.88 12,-140.88 12,-140.88 91,-140.88 91,-140.88 97,-140.88 103,-146.88 103,-152.88 103,-152.88 103,-215.88 103,-215.88 103,-221.88 97,-227.88 91,-227.88"/>
<text xml:space="preserve" text-anchor="middle" x="51.5" y="-210.57" font-family="Arial" font-size="14.00">manufacturers</text>
<text xml:space="preserve" text-anchor="middle" x="51.5" y="-178.82" font-family="Arial" font-size="14.00">• id (PK)</text>
<text xml:space="preserve" text-anchor="middle" x="51.5" y="-163.07" font-family="Arial" font-size="14.00">• name</text>
<text xml:space="preserve" text-anchor="middle" x="51.5" y="-147.32" font-family="Arial" font-size="14.00">• country</text>
</g>
<!-- assays -->
<g id="node5" class="node">
<title>assays</title>
<path fill="#fff59d" stroke="black" d="M319.25,-243.62C319.25,-243.62 190,-243.62 190,-243.62 184,-243.62 178,-237.62 178,-231.62 178,-231.62 178,-137.12 178,-137.12 178,-131.12 184,-125.12 190,-125.12 190,-125.12 319.25,-125.12 319.25,-125.12 325.25,-125.12 331.25,-131.12 331.25,-137.12 331.25,-137.12 331.25,-231.62 331.25,-231.62 331.25,-237.62 325.25,-243.62 319.25,-243.62"/>
<text xml:space="preserve" text-anchor="middle" x="254.62" y="-226.32" font-family="Arial" font-size="14.00">assays</text>
<text xml:space="preserve" text-anchor="middle" x="254.62" y="-194.57" font-family="Arial" font-size="14.00">• id (PK)</text>
<text xml:space="preserve" text-anchor="middle" x="254.62" y="-178.82" font-family="Arial" font-size="14.00">• name</text>
<text xml:space="preserve" text-anchor="middle" x="254.62" y="-163.07" font-family="Arial" font-size="14.00">• manufacturer_id (FK)</text>
<text xml:space="preserve" text-anchor="middle" x="254.62" y="-147.32" font-family="Arial" font-size="14.00">• methodology</text>
<text xml:space="preserve" text-anchor="middle" x="254.62" y="-131.57" font-family="Arial" font-size="14.00">• platform</text>
</g>
<!-- manufacturers&#45;&gt;assays -->
<g id="edge4" class="edge">
<title>manufacturers&#45;&gt;assays</title>
<path fill="none" stroke="#f57c00" stroke-width="2" d="M103.25,-184.38C121.95,-184.38 143.72,-184.38 164.79,-184.38"/>
<polygon fill="#f57c00" stroke="#f57c00" stroke-width="2" points="164.76,-187.88 174.76,-184.38 164.76,-180.88 164.76,-187.88"/>
<text xml:space="preserve" text-anchor="middle" x="140.5" y="-186.32" font-family="Arial" font-size="9.00"> &#160;1:many &#160;</text>
</g>
<!-- assay_lots -->
<g id="node6" class="node">
<title>assay_lots</title>
<path fill="#fff176" stroke="black" d="M517.5,-269.75C517.5,-269.75 424.25,-269.75 424.25,-269.75 418.25,-269.75 412.25,-263.75 412.25,-257.75 412.25,-257.75 412.25,-179 412.25,-179 412.25,-173 418.25,-167 424.25,-167 424.25,-167 517.5,-167 517.5,-167 523.5,-167 529.5,-173 529.5,-179 529.5,-179 529.5,-257.75 529.5,-257.75 529.5,-263.75 523.5,-269.75 517.5,-269.75"/>
<text xml:space="preserve" text-anchor="middle" x="470.88" y="-252.45" font-family="Arial" font-size="14.00">assay_lots</text>
<text xml:space="preserve" text-anchor="middle" x="470.88" y="-220.7" font-family="Arial" font-size="14.00">• id (PK)</text>
<text xml:space="preserve" text-anchor="middle" x="470.88" y="-204.95" font-family="Arial" font-size="14.00">• assay_id (FK)</text>
<text xml:space="preserve" text-anchor="middle" x="470.88" y="-189.2" font-family="Arial" font-size="14.00">• lot_number</text>
<text xml:space="preserve" text-anchor="middle" x="470.88" y="-173.45" font-family="Arial" font-size="14.00">• expiration_date</text>
</g>
<!-- assays&#45;&gt;assay_lots -->
<g id="edge5" class="edge">
<title>assays&#45;&gt;assay_lots</title>
<path fill="none" stroke="#ef6c00" stroke-width="2" d="M331.46,-196.41C353.5,-199.91 377.47,-203.71 399.17,-207.16"/>
<polygon fill="#ef6c00" stroke="#ef6c00" stroke-width="2" points="398.59,-210.61 409.02,-208.72 399.69,-203.69 398.59,-210.61"/>
<text xml:space="preserve" text-anchor="middle" x="368.75" y="-207.37" font-family="Arial" font-size="9.00"> &#160;1:many &#160;</text>
</g>
<!-- assays&#45;&gt;test_configurations -->
<g id="edge7" class="edge">
<title>assays&#45;&gt;test_configurations</title>
<path fill="none" stroke="#388e3c" stroke-width="2" d="M331.61,-162.24C355.3,-156.35 381.67,-150.81 406.25,-147.88 486.02,-138.35 577.84,-141.77 642.15,-146.49"/>
<polygon fill="#388e3c" stroke="#388e3c" stroke-width="2" points="641.79,-149.97 652.02,-147.25 642.32,-142.99 641.79,-149.97"/>
<text xml:space="preserve" text-anchor="middle" x="470.88" y="-149.82" font-family="Arial" font-size="9.00"> &#160;1:many &#160;</text>
</g>
<!-- assay_lots&#45;&gt;test_configurations -->
<g id="edge9" class="edge">
<title>assay_lots&#45;&gt;test_configurations</title>
<path fill="none" stroke="#7cb342" stroke-dasharray="5,2" d="M529.98,-203.61C563.83,-195.01 607,-184.04 644,-174.64"/>
<polygon fill="#7cb342" stroke="#7cb342" points="644.46,-178.13 653.29,-172.28 642.74,-171.35 644.46,-178.13"/>
<text xml:space="preserve" text-anchor="middle" x="573" y="-197.8" font-family="Arial" font-size="9.00"> &#160;1:many &#160;</text>
</g>
<!-- qc_samples -->
<g id="node7" class="node">
<title>qc_samples</title>
<path fill="#c8e6c9" stroke="black" d="M511.5,-102.75C511.5,-102.75 430.25,-102.75 430.25,-102.75 424.25,-102.75 418.25,-96.75 418.25,-90.75 418.25,-90.75 418.25,-12 418.25,-12 418.25,-6 424.25,0 430.25,0 430.25,0 511.5,0 511.5,0 517.5,0 523.5,-6 523.5,-12 523.5,-12 523.5,-90.75 523.5,-90.75 523.5,-96.75 517.5,-102.75 511.5,-102.75"/>
<text xml:space="preserve" text-anchor="middle" x="470.88" y="-85.45" font-family="Arial" font-size="14.00">qc_samples</text>
<text xml:space="preserve" text-anchor="middle" x="470.88" y="-53.7" font-family="Arial" font-size="14.00">• id (PK)</text>
<text xml:space="preserve" text-anchor="middle" x="470.88" y="-37.95" font-family="Arial" font-size="14.00">• name</text>
<text xml:space="preserve" text-anchor="middle" x="470.88" y="-22.2" font-family="Arial" font-size="14.00">• manufacturer</text>
<text xml:space="preserve" text-anchor="middle" x="470.88" y="-6.45" font-family="Arial" font-size="14.00">• matrix_type</text>
</g>
<!-- qc_samples&#45;&gt;test_configurations -->
<g id="edge8" class="edge">
<title>qc_samples&#45;&gt;test_configurations</title>
<path fill="none" stroke="#388e3c" stroke-width="2" d="M523.76,-72.59C558.21,-86.68 604.14,-105.46 643.29,-121.47"/>
<polygon fill="#388e3c" stroke="#388e3c" stroke-width="2" points="641.82,-124.65 652.4,-125.2 644.47,-118.17 641.82,-124.65"/>
<text xml:space="preserve" text-anchor="middle" x="573" y="-101.74" font-family="Arial" font-size="9.00"> &#160;1:many &#160;</text>
</g>
<!-- cv_measurements -->
<g id="node9" class="node">
<title>cv_measurements</title>
<path fill="#ffccbc" stroke="black" d="M1035,-205.75C1035,-205.75 908.75,-205.75 908.75,-205.75 902.75,-205.75 896.75,-199.75 896.75,-193.75 896.75,-193.75 896.75,-115 896.75,-115 896.75,-109 902.75,-103 908.75,-103 908.75,-103 1035,-103 1035,-103 1041,-103 1047,-109 1047,-115 1047,-115 1047,-193.75 1047,-193.75 1047,-199.75 1041,-205.75 1035,-205.75"/>
<text xml:space="preserve" text-anchor="middle" x="971.88" y="-188.45" font-family="Arial" font-size="14.00">cv_measurements</text>
<text xml:space="preserve" text-anchor="middle" x="971.88" y="-156.7" font-family="Arial" font-size="14.00">• id (PK)</text>
<text xml:space="preserve" text-anchor="middle" x="971.88" y="-140.95" font-family="Arial" font-size="14.00">• test_config_id (FK)</text>
<text xml:space="preserve" text-anchor="middle" x="971.88" y="-125.2" font-family="Arial" font-size="14.00">• cv_lt_10_percentage</text>
<text xml:space="preserve" text-anchor="middle" x="971.88" y="-109.45" font-family="Arial" font-size="14.00">• mean_cv</text>
</g>
<!-- test_configurations&#45;&gt;cv_measurements -->
<g id="edge10" class="edge">
<title>test_configurations&#45;&gt;cv_measurements</title>
<path fill="none" stroke="#d32f2f" stroke-width="3" d="M794.68,-154.38C821.82,-154.38 853.32,-154.38 882.12,-154.38"/>
<polygon fill="#d32f2f" stroke="#d32f2f" stroke-width="3" points="881.92,-157.88 891.92,-154.38 881.92,-150.88 881.92,-157.88"/>
<text xml:space="preserve" text-anchor="middle" x="867.88" y="-156.32" font-family="Arial" font-size="9.00"> &#160;1:1 &#160;</text>
</g>
<!-- legend -->
<g id="node10" class="node">
<title>legend</title>
<path fill="lightgrey" stroke="none" d="M827,-471.5C827,-471.5 622.5,-471.5 622.5,-471.5 616.5,-471.5 610.5,-465.5 610.5,-459.5 610.5,-459.5 610.5,-251.25 610.5,-251.25 610.5,-245.25 616.5,-239.25 622.5,-239.25 622.5,-239.25 827,-239.25 827,-239.25 833,-239.25 839,-245.25 839,-251.25 839,-251.25 839,-459.5 839,-459.5 839,-465.5 833,-471.5 827,-471.5"/>
<polygon fill="lightgray" stroke="none" points="619.5,-434.75 619.5,-466.5 830,-466.5 830,-434.75 619.5,-434.75"/>
<text xml:space="preserve" text-anchor="start" x="640" y="-446.2" font-family="Arial" font-weight="bold" font-size="14.00">QC Results Database ERD</text>
<polygon fill="#e3f2fd" stroke="none" points="619.5,-403 619.5,-434.75 681.25,-434.75 681.25,-403 619.5,-403"/>
<text xml:space="preserve" text-anchor="start" x="636.88" y="-413.45" font-family="Arial" font-size="14.00">Blue</text>
<text xml:space="preserve" text-anchor="start" x="689.62" y="-413.45" font-family="Arial" font-size="14.00">Disease Classification</text>
<polygon fill="#fff9c4" stroke="none" points="619.5,-371.25 619.5,-403 681.25,-403 681.25,-371.25 619.5,-371.25"/>
<text xml:space="preserve" text-anchor="start" x="630.88" y="-381.7" font-family="Arial" font-size="14.00">Yellow</text>
<text xml:space="preserve" text-anchor="start" x="712.5" y="-381.7" font-family="Arial" font-size="14.00">Manufacturing</text>
<polygon fill="#c8e6c9" stroke="none" points="619.5,-339.5 619.5,-371.25 681.25,-371.25 681.25,-339.5 619.5,-339.5"/>
<text xml:space="preserve" text-anchor="start" x="631.25" y="-349.95" font-family="Arial" font-size="14.00">Green</text>
<text xml:space="preserve" text-anchor="start" x="716.62" y="-349.95" font-family="Arial" font-size="14.00">QC Samples</text>
<polygon fill="#ffe0b2" stroke="none" points="619.5,-307.75 619.5,-339.5 681.25,-339.5 681.25,-307.75 619.5,-307.75"/>
<text xml:space="preserve" text-anchor="start" x="627.5" y="-318.2" font-family="Arial" font-size="14.00">Orange</text>
<text xml:space="preserve" text-anchor="start" x="718.88" y="-318.2" font-family="Arial" font-size="14.00">Test Results</text>
<text xml:space="preserve" text-anchor="start" x="629" y="-286.07" font-family="Arial" font-size="14.00">━━━</text>
<text xml:space="preserve" text-anchor="start" x="689.25" y="-286.45" font-family="Arial" font-size="14.00">Required Relationship</text>
<text xml:space="preserve" text-anchor="start" x="639.88" y="-254.7" font-family="Arial" font-size="14.00">&#45; &#45; &#45;</text>
<text xml:space="preserve" text-anchor="start" x="691.12" y="-254.7" font-family="Arial" font-size="14.00">Optional Relationship</text>
<polygon fill="none" stroke="black" points="618.5,-243.25 618.5,-467.5 831,-467.5 831,-243.25 618.5,-243.25"/>
</g>
</g>
</svg>
