<?xml version="1.0" encoding="UTF-8" standalone="no"?>
<!DOCTYPE svg PUBLIC "-//W3C//DTD SVG 1.1//EN"
 "http://www.w3.org/Graphics/SVG/1.1/DTD/svg11.dtd">
<!-- Generated by graphviz version 14.0.2 (20251019.1705)
 -->
<!-- Title: ThermoDatabase Pages: 1 -->
<svg width="1492pt" height="1417pt"
 viewBox="0.00 0.00 1492.00 1417.00" xmlns="http://www.w3.org/2000/svg" xmlns:xlink="http://www.w3.org/1999/xlink">
<g id="graph0" class="graph" transform="scale(1 1) rotate(0) translate(4 1413.4)">
<title>ThermoDatabase</title>
<polygon fill="#ffffff" stroke="none" points="-4,4 -4,-1413.4 1487.92,-1413.4 1487.92,4 -4,4"/>
<text xml:space="preserve" text-anchor="middle" x="741.96" y="-1352.2" font-family="Helvetica,sans-Serif" font-size="16.00">AusGeochem Thermochronology Database Schema v2.0</text>
<text xml:space="preserve" text-anchor="middle" x="741.96" y="-1335.7" font-family="Helvetica,sans-Serif" font-size="16.00">EarthBank&#45;Compatible Architecture</text>
<text xml:space="preserve" text-anchor="middle" x="741.96" y="-1319.2" font-family="Helvetica,sans-Serif" font-size="16.00">16 Tables | 1 sample → many datapoints (analytical sessions)</text>
<text xml:space="preserve" text-anchor="middle" x="741.96" y="-1280.7" font-family="Helvetica,sans-Serif" font-size="16.00">Color Key:</text>
<text xml:space="preserve" text-anchor="middle" x="741.96" y="-1264.2" font-family="Helvetica,sans-Serif" font-size="16.00">■ Blue: Core Infrastructure &#160;■ Red: Fission&#45;Track &#160;■ Green: (U&#45;Th)/He &#160;■ Yellow: People/Roles &#160;■ Purple: QC/Batches &#160;■ Teal: Physical Samples</text>
<text xml:space="preserve" text-anchor="middle" x="741.96" y="-1244.7" font-family="Helvetica,sans-Serif" font-size="16.00">★ = Primary age field</text>
<!-- datasets -->
<g id="node1" class="node">
<title>datasets</title>
<path fill="#e3f2fd" stroke="black" d="M637.25,-1066.55C637.25,-1066.55 729.8,-1066.55 729.8,-1066.55 735.8,-1066.55 741.8,-1072.55 741.8,-1078.55 741.8,-1078.55 741.8,-1220.15 741.8,-1220.15 741.8,-1226.15 735.8,-1232.15 729.8,-1232.15 729.8,-1232.15 637.25,-1232.15 637.25,-1232.15 631.25,-1232.15 625.25,-1226.15 625.25,-1220.15 625.25,-1220.15 625.25,-1078.55 625.25,-1078.55 625.25,-1072.55 631.25,-1066.55 637.25,-1066.55"/>
<text xml:space="preserve" text-anchor="middle" x="683.52" y="-1207.3" font-family="Helvetica,sans-Serif" font-size="11.00">datasets</text>
<polyline fill="none" stroke="black" points="625.25,-1191.35 741.8,-1191.35"/>
<text xml:space="preserve" text-anchor="start" x="639.65" y="-1166.5" font-family="Helvetica,sans-Serif" font-size="11.00">id (PK)</text>
<text xml:space="preserve" text-anchor="start" x="639.65" y="-1154.5" font-family="Helvetica,sans-Serif" font-size="11.00">dataset_name</text>
<text xml:space="preserve" text-anchor="start" x="639.65" y="-1142.5" font-family="Helvetica,sans-Serif" font-size="11.00">publication_doi</text>
<text xml:space="preserve" text-anchor="start" x="639.65" y="-1130.5" font-family="Helvetica,sans-Serif" font-size="11.00">study_area</text>
<text xml:space="preserve" text-anchor="start" x="639.65" y="-1118.5" font-family="Helvetica,sans-Serif" font-size="11.00">privacy_status</text>
<text xml:space="preserve" text-anchor="start" x="639.65" y="-1106.5" font-family="Helvetica,sans-Serif" font-size="11.00">embargo_date</text>
<text xml:space="preserve" text-anchor="start" x="639.65" y="-1094.5" font-family="Helvetica,sans-Serif" font-size="11.00">data_package_doi</text>
<text xml:space="preserve" text-anchor="start" x="639.65" y="-1082.5" font-family="Helvetica,sans-Serif" font-size="11.00">license</text>
</g>
<!-- samples -->
<g id="node3" class="node">
<title>samples</title>
<path fill="#e8f5e9" stroke="black" stroke-width="2.5" d="M639.12,-756.2C639.12,-756.2 727.92,-756.2 727.92,-756.2 733.92,-756.2 739.92,-762.2 739.92,-768.2 739.92,-768.2 739.92,-957.8 739.92,-957.8 739.92,-963.8 733.92,-969.8 727.92,-969.8 727.92,-969.8 639.12,-969.8 639.12,-969.8 633.12,-969.8 627.12,-963.8 627.12,-957.8 627.12,-957.8 627.12,-768.2 627.12,-768.2 627.12,-762.2 633.12,-756.2 639.12,-756.2"/>
<text xml:space="preserve" text-anchor="middle" x="683.52" y="-944.95" font-family="Helvetica,sans-Serif" font-size="11.00">samples</text>
<polyline fill="none" stroke="black" stroke-width="2.5" points="627.12,-929 739.92,-929"/>
<text xml:space="preserve" text-anchor="start" x="641.52" y="-904.15" font-family="Helvetica,sans-Serif" font-size="11.00">sample_id (PK)</text>
<text xml:space="preserve" text-anchor="start" x="641.52" y="-892.15" font-family="Helvetica,sans-Serif" font-size="11.00">dataset_id (FK)</text>
<text xml:space="preserve" text-anchor="start" x="641.52" y="-880.15" font-family="Helvetica,sans-Serif" font-size="11.00">igsn (UK)</text>
<text xml:space="preserve" text-anchor="start" x="641.52" y="-868.15" font-family="Helvetica,sans-Serif" font-size="11.00">latitude, longitude</text>
<text xml:space="preserve" text-anchor="start" x="641.52" y="-856.15" font-family="Helvetica,sans-Serif" font-size="11.00">elevation_m</text>
<text xml:space="preserve" text-anchor="start" x="641.52" y="-844.15" font-family="Helvetica,sans-Serif" font-size="11.00">lithology</text>
<text xml:space="preserve" text-anchor="start" x="641.52" y="-832.15" font-family="Helvetica,sans-Serif" font-size="11.00">mineral_type</text>
<text xml:space="preserve" text-anchor="start" x="641.52" y="-820.15" font-family="Helvetica,sans-Serif" font-size="11.00">stratigraphic_unit</text>
<text xml:space="preserve" text-anchor="start" x="641.52" y="-808.15" font-family="Helvetica,sans-Serif" font-size="11.00">sample_age_ma</text>
<text xml:space="preserve" text-anchor="start" x="641.52" y="-796.15" font-family="Helvetica,sans-Serif" font-size="11.00">collection_date</text>
<text xml:space="preserve" text-anchor="start" x="641.52" y="-784.15" font-family="Helvetica,sans-Serif" font-size="11.00">n_aft_grains</text>
<text xml:space="preserve" text-anchor="start" x="641.52" y="-772.15" font-family="Helvetica,sans-Serif" font-size="11.00">n_ahe_grains</text>
</g>
<!-- datasets&#45;&gt;samples -->
<g id="edge1" class="edge">
<title>datasets:pk&#45;&gt;samples:pk</title>
<path fill="none" stroke="#1976d2" stroke-width="2" d="M683.52,-1191.16C683.52,-1191.16 683.52,-980.5 683.52,-980.5"/>
<polygon fill="#1976d2" stroke="#1976d2" stroke-width="2" points="686.33,-982.01 683.53,-974.01 680.73,-982.01 686.33,-982.01"/>
<text xml:space="preserve" text-anchor="middle" x="690.65" y="-1014.5" font-family="Helvetica,sans-Serif" font-size="9.00">1:N</text>
</g>
<!-- people -->
<g id="node2" class="node">
<title>people</title>
<path fill="#fff3e0" stroke="black" d="M1284.38,-1084.55C1284.38,-1084.55 1338.68,-1084.55 1338.68,-1084.55 1344.68,-1084.55 1350.68,-1090.55 1350.68,-1096.55 1350.68,-1096.55 1350.68,-1202.15 1350.68,-1202.15 1350.68,-1208.15 1344.68,-1214.15 1338.68,-1214.15 1338.68,-1214.15 1284.38,-1214.15 1284.38,-1214.15 1278.38,-1214.15 1272.38,-1208.15 1272.38,-1202.15 1272.38,-1202.15 1272.38,-1096.55 1272.38,-1096.55 1272.38,-1090.55 1278.38,-1084.55 1284.38,-1084.55"/>
<text xml:space="preserve" text-anchor="middle" x="1311.53" y="-1189.3" font-family="Helvetica,sans-Serif" font-size="11.00">people</text>
<polyline fill="none" stroke="black" points="1272.38,-1173.35 1350.68,-1173.35"/>
<text xml:space="preserve" text-anchor="start" x="1286.78" y="-1148.5" font-family="Helvetica,sans-Serif" font-size="11.00">id (PK)</text>
<text xml:space="preserve" text-anchor="start" x="1286.78" y="-1136.5" font-family="Helvetica,sans-Serif" font-size="11.00">orcid (UK)</text>
<text xml:space="preserve" text-anchor="start" x="1286.78" y="-1124.5" font-family="Helvetica,sans-Serif" font-size="11.00">name</text>
<text xml:space="preserve" text-anchor="start" x="1286.78" y="-1112.5" font-family="Helvetica,sans-Serif" font-size="11.00">email</text>
<text xml:space="preserve" text-anchor="start" x="1286.78" y="-1100.5" font-family="Helvetica,sans-Serif" font-size="11.00">affiliation</text>
</g>
<!-- sample_people_roles -->
<g id="node4" class="node">
<title>sample_people_roles</title>
<path fill="#fffde7" stroke="black" d="M1365.12,-804.2C1365.12,-804.2 1471.93,-804.2 1471.93,-804.2 1477.93,-804.2 1483.93,-810.2 1483.93,-816.2 1483.93,-816.2 1483.93,-909.8 1483.93,-909.8 1483.93,-915.8 1477.93,-921.8 1471.93,-921.8 1471.93,-921.8 1365.12,-921.8 1365.12,-921.8 1359.12,-921.8 1353.12,-915.8 1353.12,-909.8 1353.12,-909.8 1353.12,-816.2 1353.12,-816.2 1353.12,-810.2 1359.12,-804.2 1365.12,-804.2"/>
<text xml:space="preserve" text-anchor="middle" x="1418.53" y="-896.95" font-family="Helvetica,sans-Serif" font-size="11.00">sample_people_roles</text>
<polyline fill="none" stroke="black" points="1353.12,-881 1483.93,-881"/>
<text xml:space="preserve" text-anchor="start" x="1367.53" y="-856.15" font-family="Helvetica,sans-Serif" font-size="11.00">id (PK)</text>
<text xml:space="preserve" text-anchor="start" x="1367.53" y="-844.15" font-family="Helvetica,sans-Serif" font-size="11.00">sample_id (FK)</text>
<text xml:space="preserve" text-anchor="start" x="1367.53" y="-832.15" font-family="Helvetica,sans-Serif" font-size="11.00">person_id (FK)</text>
<text xml:space="preserve" text-anchor="start" x="1367.53" y="-820.15" font-family="Helvetica,sans-Serif" font-size="11.00">role</text>
</g>
<!-- people&#45;&gt;sample_people_roles -->
<g id="edge3" class="edge">
<title>people:pk&#45;&gt;sample_people_roles:pk</title>
<path fill="none" stroke="#666666" d="M1334.92,-1172.88C1334.92,-1103.2 1334.92,-883 1334.92,-883 1334.92,-883 1343.14,-883 1343.14,-883"/>
<polygon fill="#666666" stroke="#666666" points="1343.14,-885.8 1351.14,-883 1343.14,-880.2 1343.14,-885.8"/>
<text xml:space="preserve" text-anchor="middle" x="1395.65" y="-1014.5" font-family="Helvetica,sans-Serif" font-size="9.00">1:N</text>
</g>
<!-- datapoint_people_roles -->
<g id="node16" class="node">
<title>datapoint_people_roles</title>
<path fill="#fffde7" stroke="black" d="M973.25,-68.38C973.25,-68.38 1089.8,-68.38 1089.8,-68.38 1095.8,-68.38 1101.8,-74.38 1101.8,-80.38 1101.8,-80.38 1101.8,-185.98 1101.8,-185.98 1101.8,-191.98 1095.8,-197.98 1089.8,-197.98 1089.8,-197.98 973.25,-197.98 973.25,-197.98 967.25,-197.98 961.25,-191.98 961.25,-185.98 961.25,-185.98 961.25,-80.38 961.25,-80.38 961.25,-74.38 967.25,-68.38 973.25,-68.38"/>
<text xml:space="preserve" text-anchor="middle" x="1031.53" y="-173.13" font-family="Helvetica,sans-Serif" font-size="11.00">datapoint_people_roles</text>
<polyline fill="none" stroke="black" points="961.25,-157.18 1101.8,-157.18"/>
<text xml:space="preserve" text-anchor="start" x="975.65" y="-132.33" font-family="Helvetica,sans-Serif" font-size="11.00">id (PK)</text>
<text xml:space="preserve" text-anchor="start" x="975.65" y="-120.33" font-family="Helvetica,sans-Serif" font-size="11.00">datapoint_id (FK)</text>
<text xml:space="preserve" text-anchor="start" x="975.65" y="-108.33" font-family="Helvetica,sans-Serif" font-size="11.00">datapoint_type</text>
<text xml:space="preserve" text-anchor="start" x="975.65" y="-96.33" font-family="Helvetica,sans-Serif" font-size="11.00">person_id (FK)</text>
<text xml:space="preserve" text-anchor="start" x="975.65" y="-84.33" font-family="Helvetica,sans-Serif" font-size="11.00">role</text>
</g>
<!-- people&#45;&gt;datapoint_people_roles -->
<g id="edge16" class="edge">
<title>people:pk&#45;&gt;datapoint_people_roles:pk</title>
<path fill="none" stroke="#666666" d="M1295.78,-1173.13C1295.78,-1046.16 1295.78,-376 1295.78,-376 1295.78,-376 1077.65,-376 1077.65,-376 1077.65,-376 1077.65,-207.95 1077.65,-207.95"/>
<polygon fill="#666666" stroke="#666666" points="1080.45,-207.95 1077.65,-199.95 1074.85,-207.95 1080.45,-207.95"/>
<text xml:space="preserve" text-anchor="middle" x="1272.65" y="-694.4" font-family="Helvetica,sans-Serif" font-size="9.00">1:N</text>
</g>
<!-- samples&#45;&gt;sample_people_roles -->
<g id="edge2" class="edge">
<title>samples:pk&#45;&gt;sample_people_roles:pk</title>
<path fill="none" stroke="#666666" d="M683.66,-843C683.66,-843 1408.88,-843 1408.88,-843"/>
<polygon fill="#666666" stroke="#666666" points="1408.88,-845.8 1416.88,-843 1408.88,-840.2 1408.88,-845.8"/>
<text xml:space="preserve" text-anchor="middle" x="1050.53" y="-1014.5" font-family="Helvetica,sans-Serif" font-size="9.00">1:N</text>
</g>
<!-- mounts -->
<g id="node7" class="node">
<title>mounts</title>
<path fill="#e0f2f1" stroke="black" d="M233.12,-430.48C233.12,-430.48 333.92,-430.48 333.92,-430.48 339.92,-430.48 345.92,-436.48 345.92,-442.48 345.92,-442.48 345.92,-560.08 345.92,-560.08 345.92,-566.08 339.92,-572.08 333.92,-572.08 333.92,-572.08 233.12,-572.08 233.12,-572.08 227.12,-572.08 221.12,-566.08 221.12,-560.08 221.12,-560.08 221.12,-442.48 221.12,-442.48 221.12,-436.48 227.12,-430.48 233.12,-430.48"/>
<text xml:space="preserve" text-anchor="middle" x="283.52" y="-547.23" font-family="Helvetica,sans-Serif" font-size="11.00">mounts</text>
<polyline fill="none" stroke="black" points="221.12,-531.28 345.92,-531.28"/>
<text xml:space="preserve" text-anchor="start" x="235.52" y="-506.43" font-family="Helvetica,sans-Serif" font-size="11.00">id (PK)</text>
<text xml:space="preserve" text-anchor="start" x="235.52" y="-494.43" font-family="Helvetica,sans-Serif" font-size="11.00">mount_id (UK)</text>
<text xml:space="preserve" text-anchor="start" x="235.52" y="-482.43" font-family="Helvetica,sans-Serif" font-size="11.00">sample_id (FK)</text>
<text xml:space="preserve" text-anchor="start" x="235.52" y="-470.43" font-family="Helvetica,sans-Serif" font-size="11.00">etchant_chemical</text>
<text xml:space="preserve" text-anchor="start" x="235.52" y="-458.43" font-family="Helvetica,sans-Serif" font-size="11.00">etch_duration_s</text>
<text xml:space="preserve" text-anchor="start" x="235.52" y="-446.43" font-family="Helvetica,sans-Serif" font-size="11.00">etch_temperature_c</text>
</g>
<!-- samples&#45;&gt;mounts -->
<g id="edge4" class="edge">
<title>samples:pk&#45;&gt;mounts:pk</title>
<path fill="none" stroke="#00897b" d="M683.45,-863C677.3,-863 283.52,-863 283.52,-863 283.52,-863 283.52,-581.62 283.52,-581.62"/>
<polygon fill="#00897b" stroke="#00897b" points="286.33,-581.62 283.53,-573.62 280.73,-581.62 286.33,-581.62"/>
<text xml:space="preserve" text-anchor="middle" x="550.65" y="-694.4" font-family="Helvetica,sans-Serif" font-size="9.00">1:N</text>
</g>
<!-- ft_datapoints -->
<g id="node9" class="node">
<title>ft_datapoints</title>
<path fill="#ffebee" stroke="black" stroke-width="2" d="M618.88,-362.6C618.88,-362.6 736.17,-362.6 736.17,-362.6 742.17,-362.6 748.17,-368.6 748.17,-374.6 748.17,-374.6 748.17,-627.95 748.17,-627.95 748.17,-633.95 742.17,-639.95 736.17,-639.95 736.17,-639.95 618.88,-639.95 618.88,-639.95 612.88,-639.95 606.88,-633.95 606.88,-627.95 606.88,-627.95 606.88,-374.6 606.88,-374.6 606.88,-368.6 612.88,-362.6 618.88,-362.6"/>
<text xml:space="preserve" text-anchor="middle" x="677.52" y="-615.1" font-family="Helvetica,sans-Serif" font-size="11.00">ft_datapoints</text>
<polyline fill="none" stroke="black" stroke-width="2" points="606.88,-599.15 748.17,-599.15"/>
<text xml:space="preserve" text-anchor="start" x="621.27" y="-574.3" font-family="Helvetica,sans-Serif" font-size="11.00">id (PK)</text>
<text xml:space="preserve" text-anchor="start" x="621.27" y="-562.3" font-family="Helvetica,sans-Serif" font-size="11.00">sample_id (FK)</text>
<text xml:space="preserve" text-anchor="start" x="621.27" y="-550.3" font-family="Helvetica,sans-Serif" font-size="11.00">datapoint_key (UK)</text>
<text xml:space="preserve" text-anchor="start" x="621.27" y="-538.3" font-family="Helvetica,sans-Serif" font-size="11.00">batch_id (FK)</text>
<text xml:space="preserve" text-anchor="start" x="621.27" y="-526.3" font-family="Helvetica,sans-Serif" font-size="11.00">laboratory</text>
<text xml:space="preserve" text-anchor="start" x="621.27" y="-514.3" font-family="Helvetica,sans-Serif" font-size="11.00">analyst_orcid</text>
<text xml:space="preserve" text-anchor="start" x="621.27" y="-502.3" font-family="Helvetica,sans-Serif" font-size="11.00">analysis_date</text>
<text xml:space="preserve" text-anchor="start" x="621.27" y="-490.3" font-family="Helvetica,sans-Serif" font-size="11.00">ft_method</text>
<text xml:space="preserve" text-anchor="start" x="621.27" y="-478.3" font-family="Helvetica,sans-Serif" font-size="11.00">n_grains</text>
<text xml:space="preserve" text-anchor="start" x="621.27" y="-466.3" font-family="Helvetica,sans-Serif" font-size="11.00">central_age_ma ★</text>
<text xml:space="preserve" text-anchor="start" x="621.27" y="-450.55" font-family="Helvetica,sans-Serif" font-size="11.00">central_age_error_ma</text>
<text xml:space="preserve" text-anchor="start" x="621.27" y="-438.55" font-family="Helvetica,sans-Serif" font-size="11.00">pooled_age_ma</text>
<text xml:space="preserve" text-anchor="start" x="621.27" y="-426.55" font-family="Helvetica,sans-Serif" font-size="11.00">dispersion_pct</text>
<text xml:space="preserve" text-anchor="start" x="621.27" y="-414.55" font-family="Helvetica,sans-Serif" font-size="11.00">P_chi2_pct</text>
<text xml:space="preserve" text-anchor="start" x="621.27" y="-402.55" font-family="Helvetica,sans-Serif" font-size="11.00">mean_track_length_um</text>
<text xml:space="preserve" text-anchor="start" x="621.27" y="-390.55" font-family="Helvetica,sans-Serif" font-size="11.00">mean_Dpar_um</text>
<text xml:space="preserve" text-anchor="start" x="621.27" y="-378.55" font-family="Helvetica,sans-Serif" font-size="11.00">zeta_yr_cm2</text>
</g>
<!-- samples&#45;&gt;ft_datapoints -->
<g id="edge7" class="edge">
<title>samples:pk&#45;&gt;ft_datapoints:pk</title>
<path fill="none" stroke="#c62828" stroke-width="2" d="M683.52,-927.76C683.52,-927.76 683.52,-650.36 683.52,-650.36"/>
<polygon fill="#c62828" stroke="#c62828" stroke-width="2" points="686.33,-651.87 683.53,-643.87 680.73,-651.87 686.33,-651.87"/>
<text xml:space="preserve" text-anchor="middle" x="697.4" y="-704.15" font-family="Helvetica,sans-Serif" font-size="9.00">1:N</text>
<text xml:space="preserve" text-anchor="middle" x="697.4" y="-694.4" font-family="Helvetica,sans-Serif" font-size="9.00">(multiple</text>
<text xml:space="preserve" text-anchor="middle" x="697.4" y="-684.65" font-family="Helvetica,sans-Serif" font-size="9.00">analyses)</text>
</g>
<!-- he_datapoints -->
<g id="node14" class="node">
<title>he_datapoints</title>
<path fill="#e8f5e9" stroke="black" stroke-width="2" d="M832,-380.6C832,-380.6 983.05,-380.6 983.05,-380.6 989.05,-380.6 995.05,-386.6 995.05,-392.6 995.05,-392.6 995.05,-609.95 995.05,-609.95 995.05,-615.95 989.05,-621.95 983.05,-621.95 983.05,-621.95 832,-621.95 832,-621.95 826,-621.95 820,-615.95 820,-609.95 820,-609.95 820,-392.6 820,-392.6 820,-386.6 826,-380.6 832,-380.6"/>
<text xml:space="preserve" text-anchor="middle" x="907.52" y="-597.1" font-family="Helvetica,sans-Serif" font-size="11.00">he_datapoints</text>
<polyline fill="none" stroke="black" stroke-width="2" points="820,-581.15 995.05,-581.15"/>
<text xml:space="preserve" text-anchor="start" x="834.4" y="-556.3" font-family="Helvetica,sans-Serif" font-size="11.00">id (PK)</text>
<text xml:space="preserve" text-anchor="start" x="834.4" y="-544.3" font-family="Helvetica,sans-Serif" font-size="11.00">sample_id (FK)</text>
<text xml:space="preserve" text-anchor="start" x="834.4" y="-532.3" font-family="Helvetica,sans-Serif" font-size="11.00">datapoint_key (UK)</text>
<text xml:space="preserve" text-anchor="start" x="834.4" y="-520.3" font-family="Helvetica,sans-Serif" font-size="11.00">batch_id (FK)</text>
<text xml:space="preserve" text-anchor="start" x="834.4" y="-508.3" font-family="Helvetica,sans-Serif" font-size="11.00">laboratory</text>
<text xml:space="preserve" text-anchor="start" x="834.4" y="-496.3" font-family="Helvetica,sans-Serif" font-size="11.00">analyst_orcid</text>
<text xml:space="preserve" text-anchor="start" x="834.4" y="-484.3" font-family="Helvetica,sans-Serif" font-size="11.00">analysis_date</text>
<text xml:space="preserve" text-anchor="start" x="834.4" y="-472.3" font-family="Helvetica,sans-Serif" font-size="11.00">n_aliquots</text>
<text xml:space="preserve" text-anchor="start" x="834.4" y="-460.3" font-family="Helvetica,sans-Serif" font-size="11.00">mean_corr_age_ma ★</text>
<text xml:space="preserve" text-anchor="start" x="834.4" y="-444.55" font-family="Helvetica,sans-Serif" font-size="11.00">mean_corr_age_error_ma</text>
<text xml:space="preserve" text-anchor="start" x="834.4" y="-432.55" font-family="Helvetica,sans-Serif" font-size="11.00">weighted_mean_corr_age_ma</text>
<text xml:space="preserve" text-anchor="start" x="834.4" y="-420.55" font-family="Helvetica,sans-Serif" font-size="11.00">mswd_corr</text>
<text xml:space="preserve" text-anchor="start" x="834.4" y="-408.55" font-family="Helvetica,sans-Serif" font-size="11.00">ft_correction_equation</text>
<text xml:space="preserve" text-anchor="start" x="834.4" y="-396.55" font-family="Helvetica,sans-Serif" font-size="11.00">eU_equation</text>
</g>
<!-- samples&#45;&gt;he_datapoints -->
<g id="edge13" class="edge">
<title>samples:pk&#45;&gt;he_datapoints:pk</title>
<path fill="none" stroke="#388e3c" stroke-width="2" d="M683.66,-780C689.26,-780 868.56,-780 868.56,-780 868.56,-780 868.56,-632.23 868.56,-632.23"/>
<polygon fill="#388e3c" stroke="#388e3c" stroke-width="2" points="871.36,-633.75 868.56,-625.75 865.76,-633.75 871.36,-633.75"/>
<text xml:space="preserve" text-anchor="middle" x="800.4" y="-704.15" font-family="Helvetica,sans-Serif" font-size="9.00">1:N</text>
<text xml:space="preserve" text-anchor="middle" x="800.4" y="-694.4" font-family="Helvetica,sans-Serif" font-size="9.00">(multiple</text>
<text xml:space="preserve" text-anchor="middle" x="800.4" y="-684.65" font-family="Helvetica,sans-Serif" font-size="9.00">analyses)</text>
</g>
<!-- batches -->
<g id="node5" class="node">
<title>batches</title>
<path fill="#f3e5f5" stroke="black" d="M929.12,-1078.55C929.12,-1078.55 1041.92,-1078.55 1041.92,-1078.55 1047.92,-1078.55 1053.92,-1084.55 1053.92,-1090.55 1053.92,-1090.55 1053.92,-1208.15 1053.92,-1208.15 1053.92,-1214.15 1047.92,-1220.15 1041.92,-1220.15 1041.92,-1220.15 929.12,-1220.15 929.12,-1220.15 923.12,-1220.15 917.12,-1214.15 917.12,-1208.15 917.12,-1208.15 917.12,-1090.55 917.12,-1090.55 917.12,-1084.55 923.12,-1078.55 929.12,-1078.55"/>
<text xml:space="preserve" text-anchor="middle" x="985.52" y="-1195.3" font-family="Helvetica,sans-Serif" font-size="11.00">batches</text>
<polyline fill="none" stroke="black" points="917.12,-1179.35 1053.92,-1179.35"/>
<text xml:space="preserve" text-anchor="start" x="931.52" y="-1154.5" font-family="Helvetica,sans-Serif" font-size="11.00">id (PK)</text>
<text xml:space="preserve" text-anchor="start" x="931.52" y="-1142.5" font-family="Helvetica,sans-Serif" font-size="11.00">batch_name (UK)</text>
<text xml:space="preserve" text-anchor="start" x="931.52" y="-1130.5" font-family="Helvetica,sans-Serif" font-size="11.00">analysis_date</text>
<text xml:space="preserve" text-anchor="start" x="931.52" y="-1118.5" font-family="Helvetica,sans-Serif" font-size="11.00">laboratory</text>
<text xml:space="preserve" text-anchor="start" x="931.52" y="-1106.5" font-family="Helvetica,sans-Serif" font-size="11.00">irradiation_reactor</text>
<text xml:space="preserve" text-anchor="start" x="931.52" y="-1094.5" font-family="Helvetica,sans-Serif" font-size="11.00">thermal_neutron_dose</text>
</g>
<!-- reference_materials -->
<g id="node6" class="node">
<title>reference_materials</title>
<path fill="#f3e5f5" stroke="black" d="M1065.5,-430.48C1065.5,-430.48 1165.55,-430.48 1165.55,-430.48 1171.55,-430.48 1177.55,-436.48 1177.55,-442.48 1177.55,-442.48 1177.55,-560.08 1177.55,-560.08 1177.55,-566.08 1171.55,-572.08 1165.55,-572.08 1165.55,-572.08 1065.5,-572.08 1065.5,-572.08 1059.5,-572.08 1053.5,-566.08 1053.5,-560.08 1053.5,-560.08 1053.5,-442.48 1053.5,-442.48 1053.5,-436.48 1059.5,-430.48 1065.5,-430.48"/>
<text xml:space="preserve" text-anchor="middle" x="1115.53" y="-547.23" font-family="Helvetica,sans-Serif" font-size="11.00">reference_materials</text>
<polyline fill="none" stroke="black" points="1053.5,-531.28 1177.55,-531.28"/>
<text xml:space="preserve" text-anchor="start" x="1067.9" y="-506.43" font-family="Helvetica,sans-Serif" font-size="11.00">id (PK)</text>
<text xml:space="preserve" text-anchor="start" x="1067.9" y="-494.43" font-family="Helvetica,sans-Serif" font-size="11.00">batch_id (FK)</text>
<text xml:space="preserve" text-anchor="start" x="1067.9" y="-482.43" font-family="Helvetica,sans-Serif" font-size="11.00">material_name</text>
<text xml:space="preserve" text-anchor="start" x="1067.9" y="-470.43" font-family="Helvetica,sans-Serif" font-size="11.00">material_type</text>
<text xml:space="preserve" text-anchor="start" x="1067.9" y="-458.43" font-family="Helvetica,sans-Serif" font-size="11.00">expected_age_ma</text>
<text xml:space="preserve" text-anchor="start" x="1067.9" y="-446.43" font-family="Helvetica,sans-Serif" font-size="11.00">measured_age_ma</text>
</g>
<!-- batches&#45;&gt;reference_materials -->
<g id="edge6" class="edge">
<title>batches:pk&#45;&gt;reference_materials:pk</title>
<path fill="none" stroke="#7b1fa2" d="M1024.28,-1179.22C1024.28,-1063.8 1024.28,-501 1024.28,-501 1024.28,-501 1105.95,-501 1105.95,-501"/>
<polygon fill="#7b1fa2" stroke="#7b1fa2" points="1105.95,-503.8 1113.95,-501 1105.95,-498.2 1105.95,-503.8"/>
<text xml:space="preserve" text-anchor="middle" x="1122.65" y="-859.33" font-family="Helvetica,sans-Serif" font-size="9.00">1:N</text>
</g>
<!-- batches&#45;&gt;ft_datapoints -->
<g id="edge8" class="edge">
<title>batches:pk&#45;&gt;ft_datapoints:pk</title>
<path fill="none" stroke="#7b1fa2" d="M943.1,-1179.17C943.1,-1077.21 943.1,-631 943.1,-631 943.1,-631 758.56,-631 758.56,-631"/>
<polygon fill="#7b1fa2" stroke="#7b1fa2" points="758.56,-628.2 750.56,-631 758.56,-633.8 758.56,-628.2"/>
<text xml:space="preserve" text-anchor="middle" x="862.65" y="-859.33" font-family="Helvetica,sans-Serif" font-size="9.00">1:N</text>
</g>
<!-- batches&#45;&gt;he_datapoints -->
<g id="edge14" class="edge">
<title>batches:pk&#45;&gt;he_datapoints:pk</title>
<path fill="none" stroke="#7b1fa2" d="M969.08,-1179.16C969.08,-1179.16 969.08,-632.19 969.08,-632.19"/>
<polygon fill="#7b1fa2" stroke="#7b1fa2" points="971.88,-632.19 969.08,-624.19 966.28,-632.19 971.88,-632.19"/>
<text xml:space="preserve" text-anchor="middle" x="992.65" y="-859.33" font-family="Helvetica,sans-Serif" font-size="9.00">1:N</text>
</g>
<!-- grains -->
<g id="node8" class="node">
<title>grains</title>
<path fill="#e0f2f1" stroke="black" d="M12,-68.38C12,-68.38 103.05,-68.38 103.05,-68.38 109.05,-68.38 115.05,-74.38 115.05,-80.38 115.05,-80.38 115.05,-185.98 115.05,-185.98 115.05,-191.98 109.05,-197.98 103.05,-197.98 103.05,-197.98 12,-197.98 12,-197.98 6,-197.98 0,-191.98 0,-185.98 0,-185.98 0,-80.38 0,-80.38 0,-74.38 6,-68.38 12,-68.38"/>
<text xml:space="preserve" text-anchor="middle" x="57.52" y="-173.13" font-family="Helvetica,sans-Serif" font-size="11.00">grains</text>
<polyline fill="none" stroke="black" points="0,-157.18 115.05,-157.18"/>
<text xml:space="preserve" text-anchor="start" x="14.4" y="-132.33" font-family="Helvetica,sans-Serif" font-size="11.00">id (PK)</text>
<text xml:space="preserve" text-anchor="start" x="14.4" y="-120.33" font-family="Helvetica,sans-Serif" font-size="11.00">grain_id (UK)</text>
<text xml:space="preserve" text-anchor="start" x="14.4" y="-108.33" font-family="Helvetica,sans-Serif" font-size="11.00">mount_id (FK)</text>
<text xml:space="preserve" text-anchor="start" x="14.4" y="-96.33" font-family="Helvetica,sans-Serif" font-size="11.00">grain_morphology</text>
<text xml:space="preserve" text-anchor="start" x="14.4" y="-84.33" font-family="Helvetica,sans-Serif" font-size="11.00">grain_quality</text>
</g>
<!-- mounts&#45;&gt;grains -->
<g id="edge5" class="edge">
<title>mounts:pk&#45;&gt;grains:pk</title>
<path fill="none" stroke="#00897b" d="M283.36,-501C276.52,-501 57.52,-501 57.52,-501 57.52,-501 57.52,-207.81 57.52,-207.81"/>
<polygon fill="#00897b" stroke="#00897b" points="60.33,-207.81 57.53,-199.81 54.73,-207.81 60.33,-207.81"/>
<text xml:space="preserve" text-anchor="middle" x="64.65" y="-310.55" font-family="Helvetica,sans-Serif" font-size="9.00">1:N</text>
</g>
<!-- ft_count_data -->
<g id="node10" class="node">
<title>ft_count_data</title>
<path fill="#fce4ec" stroke="black" d="M605.5,-50.38C605.5,-50.38 705.55,-50.38 705.55,-50.38 711.55,-50.38 717.55,-56.38 717.55,-62.38 717.55,-62.38 717.55,-203.98 717.55,-203.98 717.55,-209.98 711.55,-215.98 705.55,-215.98 705.55,-215.98 605.5,-215.98 605.5,-215.98 599.5,-215.98 593.5,-209.98 593.5,-203.98 593.5,-203.98 593.5,-62.38 593.5,-62.38 593.5,-56.37 599.5,-50.38 605.5,-50.38"/>
<text xml:space="preserve" text-anchor="middle" x="655.52" y="-191.13" font-family="Helvetica,sans-Serif" font-size="11.00">ft_count_data</text>
<polyline fill="none" stroke="black" points="593.5,-175.18 717.55,-175.18"/>
<text xml:space="preserve" text-anchor="start" x="607.9" y="-150.33" font-family="Helvetica,sans-Serif" font-size="11.00">id (PK)</text>
<text xml:space="preserve" text-anchor="start" x="607.9" y="-138.33" font-family="Helvetica,sans-Serif" font-size="11.00">ft_datapoint_id (FK)</text>
<text xml:space="preserve" text-anchor="start" x="607.9" y="-126.33" font-family="Helvetica,sans-Serif" font-size="11.00">grain_id</text>
<text xml:space="preserve" text-anchor="start" x="607.9" y="-114.33" font-family="Helvetica,sans-Serif" font-size="11.00">counting_area_cm2</text>
<text xml:space="preserve" text-anchor="start" x="607.9" y="-102.33" font-family="Helvetica,sans-Serif" font-size="11.00">Ns, Ni, Nd</text>
<text xml:space="preserve" text-anchor="start" x="607.9" y="-90.33" font-family="Helvetica,sans-Serif" font-size="11.00">rho_s, rho_i, rho_d</text>
<text xml:space="preserve" text-anchor="start" x="607.9" y="-78.33" font-family="Helvetica,sans-Serif" font-size="11.00">Dpar_um</text>
<text xml:space="preserve" text-anchor="start" x="607.9" y="-66.33" font-family="Helvetica,sans-Serif" font-size="11.00">comments</text>
</g>
<!-- ft_datapoints&#45;&gt;ft_count_data -->
<g id="edge9" class="edge">
<title>ft_datapoints:pk&#45;&gt;ft_count_data:pk</title>
<path fill="none" stroke="#ad1457" d="M662.21,-598.23C662.21,-598.23 662.21,-225.7 662.21,-225.7"/>
<polygon fill="#ad1457" stroke="#ad1457" points="665.01,-225.7 662.21,-217.7 659.41,-225.7 665.01,-225.7"/>
<text xml:space="preserve" text-anchor="middle" x="662.65" y="-310.55" font-family="Helvetica,sans-Serif" font-size="9.00">1:N</text>
</g>
<!-- ft_single_grain_ages -->
<g id="node11" class="node">
<title>ft_single_grain_ages</title>
<path fill="#fce4ec" stroke="black" d="M787.62,-50.38C787.62,-50.38 891.42,-50.38 891.42,-50.38 897.42,-50.38 903.42,-56.38 903.42,-62.38 903.42,-62.38 903.42,-203.98 903.42,-203.98 903.42,-209.98 897.42,-215.98 891.42,-215.98 891.42,-215.98 787.62,-215.98 787.62,-215.98 781.62,-215.98 775.62,-209.98 775.62,-203.98 775.62,-203.98 775.62,-62.38 775.62,-62.38 775.62,-56.37 781.62,-50.38 787.62,-50.38"/>
<text xml:space="preserve" text-anchor="middle" x="839.52" y="-191.13" font-family="Helvetica,sans-Serif" font-size="11.00">ft_single_grain_ages</text>
<polyline fill="none" stroke="black" points="775.62,-175.18 903.42,-175.18"/>
<text xml:space="preserve" text-anchor="start" x="790.02" y="-150.33" font-family="Helvetica,sans-Serif" font-size="11.00">id (PK)</text>
<text xml:space="preserve" text-anchor="start" x="790.02" y="-138.33" font-family="Helvetica,sans-Serif" font-size="11.00">ft_datapoint_id (FK)</text>
<text xml:space="preserve" text-anchor="start" x="790.02" y="-126.33" font-family="Helvetica,sans-Serif" font-size="11.00">grain_id</text>
<text xml:space="preserve" text-anchor="start" x="790.02" y="-114.33" font-family="Helvetica,sans-Serif" font-size="11.00">U_ppm</text>
<text xml:space="preserve" text-anchor="start" x="790.02" y="-102.33" font-family="Helvetica,sans-Serif" font-size="11.00">U_Ca_ratio</text>
<text xml:space="preserve" text-anchor="start" x="790.02" y="-90.33" font-family="Helvetica,sans-Serif" font-size="11.00">rmr0, kappa</text>
<text xml:space="preserve" text-anchor="start" x="790.02" y="-78.33" font-family="Helvetica,sans-Serif" font-size="11.00">grain_age_ma</text>
<text xml:space="preserve" text-anchor="start" x="790.02" y="-66.33" font-family="Helvetica,sans-Serif" font-size="11.00">grain_age_error_ma</text>
</g>
<!-- ft_datapoints&#45;&gt;ft_single_grain_ages -->
<g id="edge10" class="edge">
<title>ft_datapoints:pk&#45;&gt;ft_single_grain_ages:pk</title>
<path fill="none" stroke="#ad1457" d="M677.61,-367C681.25,-367 797.81,-367 797.81,-367 797.81,-367 797.81,-225.77 797.81,-225.77"/>
<polygon fill="#ad1457" stroke="#ad1457" points="800.61,-225.77 797.81,-217.77 795.01,-225.77 800.61,-225.77"/>
<text xml:space="preserve" text-anchor="middle" x="846.65" y="-310.55" font-family="Helvetica,sans-Serif" font-size="9.00">1:N</text>
</g>
<!-- ft_track_length_data -->
<g id="node12" class="node">
<title>ft_track_length_data</title>
<path fill="#fce4ec" stroke="black" d="M185.5,-44.38C185.5,-44.38 291.55,-44.38 291.55,-44.38 297.55,-44.38 303.55,-50.38 303.55,-56.38 303.55,-56.38 303.55,-209.98 303.55,-209.98 303.55,-215.98 297.55,-221.98 291.55,-221.98 291.55,-221.98 185.5,-221.98 185.5,-221.98 179.5,-221.98 173.5,-215.98 173.5,-209.98 173.5,-209.98 173.5,-56.38 173.5,-56.38 173.5,-50.38 179.5,-44.38 185.5,-44.38"/>
<text xml:space="preserve" text-anchor="middle" x="238.52" y="-197.13" font-family="Helvetica,sans-Serif" font-size="11.00">ft_track_length_data</text>
<polyline fill="none" stroke="black" points="173.5,-181.18 303.55,-181.18"/>
<text xml:space="preserve" text-anchor="start" x="187.9" y="-156.33" font-family="Helvetica,sans-Serif" font-size="11.00">id (PK)</text>
<text xml:space="preserve" text-anchor="start" x="187.9" y="-144.33" font-family="Helvetica,sans-Serif" font-size="11.00">ft_datapoint_id (FK)</text>
<text xml:space="preserve" text-anchor="start" x="187.9" y="-132.33" font-family="Helvetica,sans-Serif" font-size="11.00">grain_id, track_id</text>
<text xml:space="preserve" text-anchor="start" x="187.9" y="-120.33" font-family="Helvetica,sans-Serif" font-size="11.00">track_type</text>
<text xml:space="preserve" text-anchor="start" x="187.9" y="-108.33" font-family="Helvetica,sans-Serif" font-size="11.00">apparent_length_um</text>
<text xml:space="preserve" text-anchor="start" x="187.9" y="-96.33" font-family="Helvetica,sans-Serif" font-size="11.00">true_length_um</text>
<text xml:space="preserve" text-anchor="start" x="187.9" y="-84.33" font-family="Helvetica,sans-Serif" font-size="11.00">angle_to_c_axis_deg</text>
<text xml:space="preserve" text-anchor="start" x="187.9" y="-72.33" font-family="Helvetica,sans-Serif" font-size="11.00">Dpar_um</text>
<text xml:space="preserve" text-anchor="start" x="187.9" y="-60.33" font-family="Helvetica,sans-Serif" font-size="11.00">rmr0</text>
</g>
<!-- ft_datapoints&#45;&gt;ft_track_length_data -->
<g id="edge11" class="edge">
<title>ft_datapoints:pk&#45;&gt;ft_track_length_data:pk</title>
<path fill="none" stroke="#ad1457" d="M677.45,-407C671.06,-407 262.34,-407 262.34,-407 262.34,-407 262.34,-231.92 262.34,-231.92"/>
<polygon fill="#ad1457" stroke="#ad1457" points="265.14,-231.92 262.34,-223.92 259.54,-231.92 265.14,-231.92"/>
<text xml:space="preserve" text-anchor="middle" x="245.65" y="-310.55" font-family="Helvetica,sans-Serif" font-size="9.00">1:N</text>
</g>
<!-- ft_binned_length_data -->
<g id="node13" class="node">
<title>ft_binned_length_data</title>
<path fill="#fce4ec" stroke="black" d="M373.38,-68.38C373.38,-68.38 523.67,-68.38 523.67,-68.38 529.67,-68.38 535.67,-74.38 535.67,-80.38 535.67,-80.38 535.67,-185.98 535.67,-185.98 535.67,-191.98 529.67,-197.98 523.67,-197.98 523.67,-197.98 373.38,-197.98 373.38,-197.98 367.38,-197.98 361.38,-191.98 361.38,-185.98 361.38,-185.98 361.38,-80.38 361.38,-80.38 361.38,-74.38 367.38,-68.38 373.38,-68.38"/>
<text xml:space="preserve" text-anchor="middle" x="448.52" y="-173.13" font-family="Helvetica,sans-Serif" font-size="11.00">ft_binned_length_data</text>
<polyline fill="none" stroke="black" points="361.38,-157.18 535.67,-157.18"/>
<text xml:space="preserve" text-anchor="start" x="375.77" y="-132.33" font-family="Helvetica,sans-Serif" font-size="11.00">id (PK)</text>
<text xml:space="preserve" text-anchor="start" x="375.77" y="-120.33" font-family="Helvetica,sans-Serif" font-size="11.00">ft_datapoint_id (FK)</text>
<text xml:space="preserve" text-anchor="start" x="375.77" y="-108.33" font-family="Helvetica,sans-Serif" font-size="11.00">bin_0_1_um ... bin_19_20_um</text>
<text xml:space="preserve" text-anchor="start" x="375.77" y="-96.33" font-family="Helvetica,sans-Serif" font-size="11.00">Dpar_um</text>
<text xml:space="preserve" text-anchor="start" x="375.77" y="-84.33" font-family="Helvetica,sans-Serif" font-size="11.00">comments</text>
</g>
<!-- ft_datapoints&#45;&gt;ft_binned_length_data -->
<g id="edge12" class="edge">
<title>ft_datapoints:pk&#45;&gt;ft_binned_length_data:pk</title>
<path fill="none" stroke="#ad1457" d="M677.36,-385C670.42,-385 448.52,-385 448.52,-385 448.52,-385 448.52,-207.74 448.52,-207.74"/>
<polygon fill="#ad1457" stroke="#ad1457" points="451.33,-207.74 448.53,-199.74 445.73,-207.74 451.33,-207.74"/>
<text xml:space="preserve" text-anchor="middle" x="455.65" y="-310.55" font-family="Helvetica,sans-Serif" font-size="9.00">1:N</text>
</g>
<!-- ft_datapoints&#45;&gt;datapoint_people_roles -->
<g id="edge17" class="edge">
<title>ft_datapoints:pk&#45;&gt;datapoint_people_roles:pk</title>
<path fill="none" stroke="#666666" stroke-dasharray="5,2" d="M677.58,-371C682.12,-371 972.52,-371 972.52,-371 972.52,-371 972.52,-207.79 972.52,-207.79"/>
<polygon fill="#666666" stroke="#666666" points="975.32,-207.79 972.52,-199.79 969.72,-207.79 975.32,-207.79"/>
<text xml:space="preserve" text-anchor="middle" x="933.65" y="-310.55" font-family="Helvetica,sans-Serif" font-size="9.00">1:N</text>
</g>
<!-- he_whole_grain_data -->
<g id="node15" class="node">
<title>he_whole_grain_data</title>
<path fill="#c8e6c9" stroke="black" d="M1171.88,-0.5C1171.88,-0.5 1307.18,-0.5 1307.18,-0.5 1313.18,-0.5 1319.18,-6.5 1319.18,-12.5 1319.18,-12.5 1319.18,-253.85 1319.18,-253.85 1319.18,-259.85 1313.18,-265.85 1307.18,-265.85 1307.18,-265.85 1171.88,-265.85 1171.88,-265.85 1165.88,-265.85 1159.88,-259.85 1159.88,-253.85 1159.88,-253.85 1159.88,-12.5 1159.88,-12.5 1159.88,-6.5 1165.88,-0.5 1171.88,-0.5"/>
<text xml:space="preserve" text-anchor="middle" x="1239.53" y="-241" font-family="Helvetica,sans-Serif" font-size="11.00">he_whole_grain_data</text>
<polyline fill="none" stroke="black" points="1159.88,-225.05 1319.18,-225.05"/>
<text xml:space="preserve" text-anchor="start" x="1174.28" y="-200.2" font-family="Helvetica,sans-Serif" font-size="11.00">id (PK)</text>
<text xml:space="preserve" text-anchor="start" x="1174.28" y="-188.2" font-family="Helvetica,sans-Serif" font-size="11.00">he_datapoint_id (FK)</text>
<text xml:space="preserve" text-anchor="start" x="1174.28" y="-176.2" font-family="Helvetica,sans-Serif" font-size="11.00">lab_no (UK)</text>
<text xml:space="preserve" text-anchor="start" x="1174.28" y="-164.2" font-family="Helvetica,sans-Serif" font-size="11.00">grain_identifier</text>
<text xml:space="preserve" text-anchor="start" x="1174.28" y="-152.2" font-family="Helvetica,sans-Serif" font-size="11.00">aliquot_type</text>
<text xml:space="preserve" text-anchor="start" x="1174.28" y="-140.2" font-family="Helvetica,sans-Serif" font-size="11.00">crystal_integrity</text>
<text xml:space="preserve" text-anchor="start" x="1174.28" y="-128.2" font-family="Helvetica,sans-Serif" font-size="11.00">length_um, width_um</text>
<text xml:space="preserve" text-anchor="start" x="1174.28" y="-116.2" font-family="Helvetica,sans-Serif" font-size="11.00">He_ncc</text>
<text xml:space="preserve" text-anchor="start" x="1174.28" y="-104.2" font-family="Helvetica,sans-Serif" font-size="11.00">U_ppm, Th_ppm, Sm_ppm</text>
<text xml:space="preserve" text-anchor="start" x="1174.28" y="-92.2" font-family="Helvetica,sans-Serif" font-size="11.00">eU_ppm</text>
<text xml:space="preserve" text-anchor="start" x="1174.28" y="-80.2" font-family="Helvetica,sans-Serif" font-size="11.00">mass_mg, volume_mm3</text>
<text xml:space="preserve" text-anchor="start" x="1174.28" y="-68.2" font-family="Helvetica,sans-Serif" font-size="11.00">Rs_um</text>
<text xml:space="preserve" text-anchor="start" x="1174.28" y="-56.2" font-family="Helvetica,sans-Serif" font-size="11.00">uncorr_age_ma</text>
<text xml:space="preserve" text-anchor="start" x="1174.28" y="-44.2" font-family="Helvetica,sans-Serif" font-size="11.00">corr_age_ma ★</text>
<text xml:space="preserve" text-anchor="start" x="1174.28" y="-28.45" font-family="Helvetica,sans-Serif" font-size="11.00">FT</text>
<text xml:space="preserve" text-anchor="start" x="1174.28" y="-16.45" font-family="Helvetica,sans-Serif" font-size="11.00">terminations</text>
</g>
<!-- he_datapoints&#45;&gt;he_whole_grain_data -->
<g id="edge15" class="edge">
<title>he_datapoints:pk&#45;&gt;he_whole_grain_data:pk</title>
<path fill="none" stroke="#2e7d32" d="M907.57,-405C911.59,-405 1168.71,-405 1168.71,-405 1168.71,-405 1168.71,-275.82 1168.71,-275.82"/>
<polygon fill="#2e7d32" stroke="#2e7d32" points="1171.51,-275.82 1168.71,-267.82 1165.91,-275.82 1171.51,-275.82"/>
<text xml:space="preserve" text-anchor="middle" x="1223.65" y="-310.55" font-family="Helvetica,sans-Serif" font-size="9.00">1:N</text>
</g>
<!-- he_datapoints&#45;&gt;datapoint_people_roles -->
<g id="edge18" class="edge">
<title>he_datapoints:pk&#45;&gt;datapoint_people_roles:pk</title>
<path fill="none" stroke="#666666" stroke-dasharray="5,2" d="M983.78,-580.23C983.78,-580.23 983.78,-207.7 983.78,-207.7"/>
<polygon fill="#666666" stroke="#666666" points="986.58,-207.7 983.78,-199.7 980.98,-207.7 986.58,-207.7"/>
<text xml:space="preserve" text-anchor="middle" x="1019.65" y="-310.55" font-family="Helvetica,sans-Serif" font-size="9.00">1:N</text>
</g>
</g>
</svg>
